<?xml version="1.0" encoding="UTF-8" standalone="no"?>
<svg
   xmlns:dc="http://purl.org/dc/elements/1.1/"
   xmlns:cc="http://creativecommons.org/ns#"
   xmlns:rdf="http://www.w3.org/1999/02/22-rdf-syntax-ns#"
   xmlns:svg="http://www.w3.org/2000/svg"
   xmlns="http://www.w3.org/2000/svg"
   xmlns:sodipodi="http://sodipodi.sourceforge.net/DTD/sodipodi-0.dtd"
   xmlns:inkscape="http://www.inkscape.org/namespaces/inkscape"
   version="1.1"
   id="svg2"
   xml:space="preserve"
   width="2829.3333"
   height="2829.3333"
   viewBox="0 0 2829.3333 2829.3333"
   sodipodi:docname="312_SkVNQSBBTk4gMjYwMi02OA.eps"><metadata
     id="metadata8"><rdf:RDF><cc:Work
         rdf:about=""><dc:format>image/svg+xml</dc:format><dc:type
           rdf:resource="http://purl.org/dc/dcmitype/StillImage" /></cc:Work></rdf:RDF></metadata><defs
     id="defs6" /><sodipodi:namedview
     pagecolor="#ffffff"
     bordercolor="#666666"
     borderopacity="1"
     objecttolerance="10"
     gridtolerance="10"
     guidetolerance="10"
     inkscape:pageopacity="0"
     inkscape:pageshadow="2"
     inkscape:window-width="640"
     inkscape:window-height="480"
     id="namedview4" /><g
     id="g10"
     inkscape:groupmode="layer"
     inkscape:label="ink_ext_XXXXXX"
     transform="matrix(1.3333333,0,0,-1.3333333,0,2829.3333)"><g
       id="g12"
       transform="scale(0.1)"><path
         d="m 10606.6,17647.1 -7433.72,-2266.5 7433.72,-2886 7433.7,2886 -7433.7,2266.5"
         style="fill:#ab4c1d;fill-opacity:1;fill-rule:nonzero;stroke:none"
         id="path14" /><path
         d="m 10606.6,17647.1 -2.5,-0.8 v -5150.8 l 2.5,-0.9 7433.7,2886 -7433.7,2266.5"
         style="fill:#7a3513;fill-opacity:1;fill-rule:nonzero;stroke:none"
         id="path16" /><path
         d="M 10606.6,3579.7 3172.88,6838.2 v 8542.4 L 10606.6,12589.5 V 3579.7"
         style="fill:#f09826;fill-opacity:1;fill-rule:nonzero;stroke:none"
         id="path18" /><path
         d="m 4520.5,6822.7 c -560.19,0 -1014.47,1651.7 -1014.47,3689.5 0,528.2 30.51,1030.3 85.49,1484.6 l 1928.26,-845.3 c 9.97,-207.6 15.18,-421.3 15.18,-639.3 0,-2037.8 -454.28,-3689.5 -1014.46,-3689.5"
         style="fill:#f4b35c;fill-opacity:1;fill-rule:nonzero;stroke:none"
         id="path20" /><path
         d="m 10606.6,3579.7 7433.7,3258.5 v 8542.4 L 10606.6,12589.5 V 3579.7"
         style="fill:#d38421;fill-opacity:1;fill-rule:nonzero;stroke:none"
         id="path22" /><path
         d="m 10606.6,3579.7 c 0,0 6206.3,2720.5 7433.7,11800.9 V 6838.2 L 10606.6,3579.7"
         style="fill:#9c6118;fill-opacity:1;fill-rule:nonzero;stroke:none"
         id="path24" /><path
         d="m 10606.6,12494.6 -63,24.5 63,70.4 v -94.9"
         style="fill:#b16e1b;fill-opacity:1;fill-rule:nonzero;stroke:none"
         id="path26" /><path
         d="m 10604.1,12590.4 -3644.5,1368.4 3644.5,1111.3 v -2479.7"
         style="fill:#813815;fill-opacity:1;fill-rule:nonzero;stroke:none"
         id="path28" /><path
         d="m 10606.6,12589.5 v 0 l -2.5,0.9 v 2479.7 l 2.5,0.8 3647,-1112.1 -3647,-1369.3"
         style="fill:#5e280e;fill-opacity:1;fill-rule:nonzero;stroke:none"
         id="path30" /><path
         d="m 10606.6,12494.6 v 0 94.9 l 3647,1369.3 69.9,-21.3 -3716.9,-1442.9"
         style="fill:#9c6118;fill-opacity:1;fill-rule:nonzero;stroke:none"
         id="path32" /><path
         d="m 12960.6,9953.5 7433.7,3258.7 -2354,2168.4 -7433.7,-2791.1 2354,-2636"
         style="fill:#ab6b1a;fill-opacity:1;fill-rule:nonzero;stroke:none"
         id="path34" /><path
         d="M 8252.78,9953.5 818.992,13212.2 3172.88,15380.6 10606.6,12589.5 8252.78,9953.5"
         style="fill:#be771e;fill-opacity:1;fill-rule:nonzero;stroke:none"
         id="path36" /><path
         d="m 1558.7,13256.3 c -63.08,0 -130.36,10.6 -205.05,34.1 l 1943.47,1822.4 2555.1,-923.7 c -331.77,24.5 -633.43,35.6 -908.04,35.6 -1283.31,0 -1979.02,-242.1 -2429.32,-484.2 -450.28,-242.1 -655.07,-484.2 -956.16,-484.2"
         style="fill:#d0984e;fill-opacity:1;fill-rule:nonzero;stroke:none"
         id="path38" /></g></g></svg>
