<?xml version="1.0" encoding="UTF-8"?>
<svg viewBox="0 0 300.00006 341.14685" xmlns="http://www.w3.org/2000/svg">
 <g transform="translate(-175.68 -154.49)">
  <path d="m427.46 265.21-21.94 6.5324c-13.238 3.9401-21.674 6.754-21.292 7.0992 0.34704 0.31448 8.8092 4.561 18.81 9.4477l17.959 14.499 50.056-19.721c0-0.21111-4.803-2.2911-10.627-4.6121s-15.631-6.2379-21.787-8.7225l-11.18-4.5222z"/>
  <path d="m344.03297,180.79982c-.3794.0455-.75935.16635-1.12381.28081l-165.87603,55.4608c-.33338.5846-.77624,3.0957-1.06771,3.70862-.12417.39944-.13843.63748-.16913.84264-.063.40954-.10971.62659-.11149.7868v.56183c.0178.22259.0414.28893.0557.39349 .0251.20893.0828.40083.11149.61808 .0612.43429.16358.96958.28106,1.68568l28.99458,162.05488c.25085,1.36229 1.00731,2.6626 2.07898,3.54009l1.79811,1.46111c33.85418,26.33425 65.09713,54.48983 99.00867,81.02745 .48441.37805.84672.70838 1.18009.95513 .16536.12476.29454.19606.50563.33746 .10437.0713.19645.19209.44954.33685 .12576.0713.34199.13467.67428.28102 .32349.1406.5398.50044 2.41631.44954v.0554h.1115v-.0554c.14377-.0218 1.64635-.19804 2.30393-.50578 .69012-.32122 1.18477-.74957 1.57336-1.12386l157.11019-86.30947c1.31552-1.70806 1.04562-2.01878 1.12384-2.3598s.0899-.50598.11149-.67431c.0432-.33706.0396-.58143.0556-.84304 .036-.52281.0378-1.08147.0557-1.79797l-4.04253-114.17906-.228-4.83367-3.22527.62045-47.09063,18.42052c-.6493-2.56793-.73669-2.9442-.0935-4.16331l20.72741-26.22196c-.14378-.36775 18.2674-9.16867 18.14567-9.54751-1.69006-5.25172 5.21597-4.86516 5.13056-10.57513l-4.15815-31.24217-114.51396-39.22144c-.7545-.22576-1.52068-.25369-2.30376-.16833v-.0554z"/>
  <path d="m344.65 154.5a2.0725 2.0725 0 0 0 -0.56191 0.1109l-34.614 12.755a2.0725 2.0725 0 0 0 -0.56191 3.5961l23.432 18.655a2.0725 2.0725 0 0 0 1.9103 0.33746l33.996-11.07a2.0725 2.0725 0 0 0 0.78666 -3.5399l-22.814-20.341a2.0725 2.0725 0 0 0 -1.5734 -0.50579z"/>
  <path d="m256.94 213.95 3.1742 34.265-33.791-22.771 2.334-31.791 28.283 20.296z"/>
  <path d="m314.31 193.15-57.37 20.797 3.1742 34.265 57.424-20.789-3.2291-34.273z"/>
  <path d="m318.35 239.55 3.0944 33.14-40.472-10.163-3.0647-33.167 40.442 10.19z"/>
  <path d="m318.35 239.55 3.0944 33.14 41.478-27.518-3.0884-33.177-41.484 27.555h1.8e-4z"/>
  <path d="m308.3 169.57 25.399 18.407 2.8759 29.907-33.498-21.593 5.2237-26.721z"/>
  <path d="m333.7 187.97 2.8759 29.907 23.187-12.867 9.7307-28.218-35.793 11.178z"/>
  <path d="m375.44 180.41a2.2136 2.2136 0 0 0 -0.44954 0.11288l-35.85 13.149a2.2136 2.2136 0 0 0 -0.44952 3.9336l30.343 20.173a2.2136 2.2136 0 0 0 2.079 0.16833l40.121-16.295a2.2136 2.2136 0 0 0 0.1115 -3.9896l-34.614-17.026a2.2136 2.2136 0 0 0 -1.2923 -0.22478z"/>
  <path d="m290.37 180.74c-0.13308 0.0198-0.26378 0.0277-0.39344 0.0554l-59.225 10.171c-2.0579 0.36558-2.8658 3.5237-1.2364 4.8327l25.736 20.285c0.72572 0.58638 1.762 0.76264 2.6409 0.44954l56.978-14.722c1.0302-0.383 1.772-1.4383 1.7839-2.5374 0.0178-1.0989-0.70667-2.1701-1.7282-2.5759l-23.488-15.733c-0.33607-0.14655-0.70162-0.2222-1.0677-0.22477l3.7e-4 3.9e-4z"/>
  <path d="m410.39 199.6 2.8602 30.978-40.118 16.276-2.8574-30.937 40.115-16.317z"/>
  <path d="m417.64 191.03a2.0105 2.0105 0 0 0 -0.95515 0.28101l-36.805 22.42a2.0105 2.0105 0 0 0 0.61819 3.7084l38.322 8.5411a2.0105 2.0105 0 0 0 1.461 -0.22477l42.818-24.387a2.0105 2.0105 0 0 0 -0.73058 -3.7086l-44.335-6.5742a2.0105 2.0105 0 0 0 -0.39344 -0.0555z"/>
  <path d="m419.25 223.98 42.941-25.081c0.66297 0.0772 1.171-0.64798 1.6935 0.30042l1.3196 58.294c0.0449 2.0944 0.20427 3.5144-2.2223 4.5974l-38.605 24.747-5.1271-62.857z"/>
  <path d="m344.79 156.61-34.569 12.723 23.417 18.64 34.016-11.032-22.864-20.331z" fill="#fff"/>
  <path d="m181.63 241.98c-0.079 0.10694 2.0574 12.404 4.7351 27.341 4.2114 23.489 5.0171 27.3 6.0296 28.086 1.3813 1.0732 26.261 13.788 26.89 13.743 0.23825-0.0198-1.4687-12.244-3.778-27.16s-4.3557-27.463-4.5548-27.882c-0.34272-0.72204-29.014-14.537-29.321-14.128z" fill="#fff"/>
  <path d="m215.66 257.77 0.13665 2.0792c0.0755 1.1383 2.0193 13.759 4.3223 28.053l4.1862 25.993 15.714 7.9929c8.6426 4.398 15.744 7.9527 15.78 7.9044s-1.5343-12.747-3.4959-28.23l-3.5653-28.161-16.54-7.8155-16.54-7.8155z" fill="#fff"/>
  <path d="m412.4 247.1c-3.7758 0.94384-57.388 21.17-58.05 21.93-0.19923 0.23071 0.66477 9.8131 1.933 21.306s2.6202 24.344 3.0082 28.557c0.3848 4.2138 0.95013 7.6159 1.2373 7.5652 0.29075-0.0416 12.987-5.2386 28.212-11.532s27.787-11.589 27.921-11.768c0.42166-0.56243-3.5594-55.722-4.0483-56.089-0.0287-0.0218-0.0935-0.0198-0.21291 0.0297z" fill="#fff"/>
  <path d="m252.81 275.37 3.796 28.108c2.8464 21.107 4.0069 28.292 4.6546 28.857 1.0476 0.91472 33.238 17.413 33.903 17.375 0.25947-0.0198-0.99669-10.296-2.7867-22.847s-3.4574-25.562-3.712-28.912l-0.4542-6.093-1.7381-0.38538c-0.9494-0.21388-8.1018-3.5494-15.888-7.4137s-14.957-7.4026-15.952-7.8598l-1.8213-0.82898z" fill="#fff"/>
  <path d="m349.21 271.07c-2.8906 0.38776-55.239 20.866-55.827 21.83-0.4927 0.80799 0.3001 7.6495 3.4182 29.489 2.2336 15.644 4.2723 28.419 4.5273 28.38 0.25604-0.0356 12.535-5.0438 27.3-11.124s27.039-11.329 27.264-11.654c0.22422-0.32498-0.89673-11.954-2.4816-25.841s-2.925-26.597-2.9831-28.244c-0.0917-2.5717-0.26378-2.9664-1.2168-2.8359z" fill="#fff"/>
  <path d="m192.88 303.14c-0.37617 0.50183 7.783 47 8.714 49.661 0.55615 1.5896 3.0483 3.4427 13.906 10.31l13.233 8.3668-1.0762-8.6571c-0.59483-4.7596-2.5003-17.109-4.2362-27.451l-3.1614-18.814-13.541-6.9172c-7.4471-3.8029-13.671-6.7208-13.838-6.4988z" fill="#fff"/>
  <path d="m225.18 319.29c-0.0594 0.1307 1.7952 12.575 4.1438 27.643 3.2817 21.155 4.4512 27.544 5.1564 28.072 0.5024 0.37666 7.4061 4.7972 15.34 9.8087l14.428 9.1071-1.5291-13.483c-0.84116-7.4133-2.5186-20.66-3.7259-29.425l-2.1935-15.922-15.758-8.0264c-8.6664-4.4109-15.802-7.9058-15.861-7.7741z" fill="#fff"/>
  <path d="m467.7 287.1c-0.72735 0.10496-46.107 18.631-46.361 18.935-0.13664 0.16437 3.809 58.822 4.0922 60.835 0.0935 0.65847 0.48045 0.98562 0.90084 0.76244 0.40495-0.21507 9.9092-4.3558 21.121-9.193s20.709-9.0748 21.11-9.4093c0.49178-0.41053 0.58852-9.9307 0.27691-29.264-0.25388-15.757-0.46194-29.57-0.4436-30.705 0.0216-1.3522-0.21162-2.0247-0.69568-1.96z" fill="#fff"/>
  <path d="m417 307.77-27.882 11.485c-15.338 6.3174-28.005 11.626-28.134 11.798-0.25875 0.34498 4.7995 48.157 5.9942 56.682l0.73741 5.3396 26.568-11.535c14.614-6.3469 26.714-11.73 26.884-11.956 0.29957-0.39904-3.246-54.973-3.8676-59.54l-0.29957-2.2736z" fill="#fff"/>
  <path d="m261.24 337.49c-0.15645 0.0218 1.6514 13.521 4.0253 29.996l4.3167 29.955 17.183 10.793 17.183 10.793-0.75628-8.0692c-0.41122-4.4364-2.2593-18.874-4.1054-32.084l-3.3488-24.014-17.102-8.7052c-9.4106-4.7855-17.238-8.6865-17.394-8.6643z" fill="#fff"/>
  <path d="m356.5 333.08c-0.28681-0.21527-54.498 21.84-54.735 22.269-0.0396 0.0693 1.7474 14.247 3.9614 31.49 3.9715 30.928 4.024 31.346 5.1784 30.861 0.64338-0.2717 12.719-5.5125 26.831-11.632l25.656-11.127-0.55076-6.6336c-0.98356-11.516-5.9737-54.952-6.3407-55.227z" fill="#fff"/>
  <path d="m203.02 361.05c-0.0251 0-0.0216 0.0297-0.0198 0.0436-0.0178 0.48202 1.7555 10.828 3.9539 22.978l4.0037 22.079 1.7961 1.4861 13.213 10.864 11.436 9.376-1.48-11.748c-0.81365-6.4684-2.533-17.917-3.8476-25.428l-2.3856-13.658-13.319-8.414c-7.5181-4.7446-13.004-7.8511-13.358-7.5771z" fill="#fff"/>
  <path d="m235.08 380.45 1.4719 11.689c0.80934 6.4382 2.5648 18.139 3.9278 25.991l2.4744 14.279 14.802 12.143 14.821 12.14-0.77284-8.186c-0.42326-4.5037-2.04-17.327-3.5959-28.513l-2.8252-20.347-15.151-9.5978-15.151-9.598z" fill="#fff"/>
  <path d="m468.16 354.52c-1.9639 0.42004-7.3424 2.6735-20.763 8.508-11.805 5.1327-21.497 9.3794-21.539 9.4511s0.65144 10.575 1.5505 23.34 1.6893 24.883 1.7663 26.933c0.1313 3.4805 0.21668 3.6973 1.2554 3.1072 0.6119-0.34736 9.5795-5.2676 19.923-10.923s19.022-10.562 19.291-10.912c0.51012-0.66243 0.0378-47.691-0.49501-49.37-0.063-0.19804-0.33482-0.27547-0.98951-0.13467z" fill="#fff"/>
  <path d="m421.48 374.53c-0.4249-0.15645-52.985 22.632-53.308 23.114-0.12238 0.18021 1.0393 11.411 2.5733 24.957s2.9178 26.677 3.0773 29.181 0.44683 4.5295 0.64264 4.5018 11.726-6.2752 25.62-13.875l25.254-13.803 0.0503-2.0067c0.0665-3.7956-3.55-51.936-3.9098-52.07z" fill="#fff"/>
  <path d="m270.19 402.84c-0.31001-0.0693 1.3033 13.012 3.5957 29.068l4.1695 29.203 17.407 14.305c9.5742 7.8711 17.578 14.299 17.781 14.291 0.20407 0-1.0064-10.979-2.6896-24.386s-3.5835-28.033-4.2248-32.502l-1.1852-8.127-17.153-10.857c-9.4356-5.9706-17.397-10.923-17.706-10.995z" fill="#fff"/>
  <path d="m363.9 399.62c-0.23483-0.17625-16.049 6.5831-52.398 22.41-0.97674 0.42558-0.74965 2.5166 3.5204 32.424 2.5208 17.656 4.7963 31.825 5.0761 31.668l25.567-13.966 25.055-13.675-0.51299-3.768c-0.29507-2.0667-1.7679-15.254-3.274-29.311s-2.8666-25.662-3.0277-25.783z" fill="#fff"/>
  <path d="m232.35 222.12-21.622 6.7895c-11.893 3.7399-21.753 6.9643-21.905 7.1667s0.17447 0.56064 0.72608 0.7874 6.2188 2.9507 12.585 6.0439 11.994 5.5688 12.509 5.5199 10.434-3.474 22.038-7.621 21.282-7.7347 21.492-7.9789-5.5136-2.768-12.717-5.5894l-13.106-5.118z" fill="#fff"/>
  <path d="m309.09 252.19-23.422 9.4424c-12.89 5.1941-23.414 9.6061-23.372 9.7917 0.11328 0.50242 28.842 14.274 29.565 14.173 0.34145-0.0475 12.105-4.4354 26.13-9.7495s25.567-9.7618 25.656-9.8802-7.6495-3.2607-17.194-6.9895l-17.363-6.7875z" fill="#fff"/>
  <path d="m263.86 235.44c-0.68851 0.26557-10.617 3.8245-22.057 7.9014s-21.072 7.5325-21.395 7.6874c-0.32296 0.15645 7.6716 4.2427 17.748 9.0689l18.319 8.7694 17.994-7.2418 23.258-9.34c2.8816-1.1613 4.9869-2.2885 4.6904-2.5111s-8.8124-3.6512-18.927-7.6131c-12.547-4.9149-18.777-7.0519-19.631-6.7212z" fill="#fff"/>
  <path d="m318.78 206.69-40.886 22.669 40.433 10.164 41.504-27.522-41.05-5.3103z" fill="#fff"/>
  <path d="m375.79 182.6-35.86 13.158 30.346 20.16 40.123-16.302-34.608-17.016z" fill="#fff"/>
  <path d="m290.43 183.52-59.208 10.118 25.714 20.303 57.177-13.146-23.683-17.275z" fill="#fff"/>
  <path d="m417.76 193.05-36.833 22.413 38.332 8.5221 42.821-24.348-44.321-6.5879z" fill="#fff"/>
  <path d="m370.99 227.36-27.718 11.105c-15.245 6.1094-27.694 11.275-27.666 11.474s7.8013 3.3755 17.266 7.0782l17.197 6.7318 28.802-10.864c15.833-5.9825 28.881-11.016 28.996-11.169 0.11505-0.15447-8.1336-3.4476-18.331-7.3224l-18.547-7.034z" fill="#fff"/>
  <path d="m462.32 204.82-42.201 24.528 4.2811 54.585 38.669-24.717-0.74945-54.396z" fill="#fff"/>
 </g>
</svg>
