<?xml version="1.0" encoding="UTF-8"?>
<svg version="1.1" viewBox="0 0 104.71 110.7" xmlns="http://www.w3.org/2000/svg">
 <g transform="translate(-322.64 -477.03)">
  <g transform="matrix(.086009 0 0 .086009 -202.23 551.46)" stroke-width="9.3013">
   <g transform="matrix(.99475 .10234 -.10234 .99475 1046.7 1767.5)" stroke-width="9.3013">
    <g transform="matrix(.99986 -.01644 .01644 .99986 21929 -9128.6)" stroke="#00080e" stroke-width="9.3013">
     <g transform="matrix(.99638 -.084998 .084998 .99638 -15709 5648.4)" fill="none" stroke="#00080e" stroke-linecap="round" stroke-linejoin="round" stroke-width="9.3013">
      <path d="m-1148.1 385.15 200.23 138.55s34.627 24.66 41.614 44.921"/>
      <path d="m-907.55 1092.7c-23.451 5.2071-85.951-10.539-98.013-17.043l-347.42-232.89c-74.277-54.682-90.477-123.34-75.157-204.28l52.429-235.59c28.646-136.94 43.106-155.18 89.219-183.13"/>
      <path d="m-976.1 565.85 39.132 29.082c25.814 19.426 31.444 43.816 26.12 72.572l-21.221 97.473"/>
      <path d="m-946.99 608.39c30.757 22.826 37.466 51.484 31.122 85.274l-25.284 114.53"/>
      <path d="m-1216.7 314.31 277.11 191.78c19.299 15.052 122.83 33.441 160.27 6.649" color="#000000"/>
      <path d="m-588.3 424.63-208.94 117c-19.217 12.711-40.287 29.881-51.383 55.654"/>
      <path d="m-745.21 493.16 233.48-127.02c16.786-9.1321 32.634-47.675 16.168-56.96l-342.49-238.59c-32.159-24.41-99.915-29.88-137.94-9.6217l-293.55 147.54"/>
      <path d="m-473.54 328.31c13.576 11.488 18.912 67.917 13.206 85.777l-92.489 407.77c-5.7426 25.202-44.154 85.627-73.426 103.5l-261.21 159.53"/>
      <path d="m-565.05 413.42 54.53-30.054c20.877-9.7808 38.454 3.0683 28.158 43.775l-25.284 114.53"/>
      <path d="m-605.75 451.92 106.49-56.133c12.68-6.1289 23.356 1.9226 17.103 27.43l-15.357 71.769"/>
      <path d="m-544.74 442.14 49.495-26.735c8.168-4.1185 15.045 1.292 11.017 18.433l-9.8925 48.228"/>
      <path d="m-517.07 450.33 23.943-13.724c4.438-2.4566 8.1745 0.77064 5.9858 10.995l-5.375 28.766"/>
      <path d="m-501.26 464.06 6.2491-4.0992c2.3925-1.3341 4.4068 0.4185 3.2268 5.9707l-2.8976 15.622"/>
      <path d="m-1060.5 120.5 92.947-47.556c27.725-14.186 79.474-15.302 121.38 8.7193l250.25 176.34"/>
      <path d="m-1012.2 117.74 79.873-40.849c13.95-7.1342 53.492-11.715 74.7 0.09496l126.64 86.704"/>
      <path d="m-952.34 109.46 53.232-26.457c9.7866-4.864 37.973-6.538 52.839 1.5319l88.77 59.244"/>
      <path d="m-901.32 106.41 31.529-16.207c4.6846-2.4081 22.898-2.991 30.184 0.60752l43.503 26.418"/>
      <path d="m-856.17 105.01 13.253-6.5044c3.9531-1.9402 11.332-2.0928 17.307 1.1926"/>
      <path d="m-703.77 954.8-174.1 105.08c-24.401 11.022-60.336-28.691-54.194-55.202l60.689-269.67"/>
      <path d="m-759.58 967.18-131.18 78.767c-18.386 8.2621-45.463-21.505-40.835-41.377l18.182-81.415"/>
      <path d="m-816.72 978.74-87.47 51.961c-12.26 5.4503-30.314-14.187-27.228-27.296l12.123-53.707"/>
      <path d="m-879.96 995.31-39.955 22.822c-5.6 2.3939-13.847-6.2312-12.437-11.989l5.5376-23.59"/>
      <path d="m-911.58 993.09-14.225 7.044c-1.9937 0.7389-4.9298-1.9232-4.428-3.7003l1.9715-7.2807"/>
      <path d="m-918.74 978.47-5.2099 1.5157c-0.73021 0.15899-1.8056-0.41385-1.6218-0.79624l0.72208-1.5667"/>
      <path d="m-1380.6 512.73 24.968-113.4c20.34-88.095 101.71-97.786 151.71-53.333"/>
      <path d="m-1165.5 174.15-60.099 29.92c-22.09 14.173-26.332 72.493-9.388 90.488"/>
      <path d="m-1278.3 336.92c12.162-2.3775 36.781-1.2328 69.102 24.768l257.43 179.78c34.731 25.559 51.389 73.02 44.226 110.86l-28.551 128.25"/>
      <path d="m-961.79 984.52 58.674-262.08"/>
      <path d="m-687.29 496.82-94.135 52.714c-19.217 12.711-62.024 43.714-72.133 113.95"/>
      <path d="m-637.89 913.62c22.639-10.276 66.071-73.263 71.639-97.153"/>
      <path d="m-1002.7 525.57 55.23 40.016c36.434 26.73 44.38 60.29 36.865 99.859l-29.95 134.12"/>
      <path d="m-933.15 649.38c12.959 12.16 15.786 27.426 13.113 45.427l-10.653 61.013"/>
      <path d="m-933.15 681.65c7.9392 9.1513 9.6708 20.641 8.0333 34.188l-6.5265 45.918"/>
      <path d="m-866.23 635.76-83.406 365.67c-5.7386 27.807-59.47 51.645-77.171 39.504l-34.257-23.496"/>
      <path d="m-1096.5 994.43-255.44-170.67c-70.302-53.225-71.151-134.28-59.047-182l12.742-56.117"/>
      <path d="m-1238.8 879.6-128.47-87.239c-50.689-37.492-54.652-106.18-44.661-145.65"/>
      <path d="m-1268.9 839.15-106.15-72.273c-41.881-31.06-45.155-87.964-36.9-120.67"/>
      <path d="m-1326.2 780.53-65.392-44.947c-25.8-19.316-27.817-54.706-22.732-75.043"/>
      <path d="m-1356 741.99-43.861-30.512c-17.305-13.113-18.658-37.137-15.247-50.943"/>
      <path d="m-1388.5 700.49-19.294-14.042c-7.6125-6.0344-8.2076-17.09-6.7071-23.444"/>
      <path d="m-1401.7 670.85-8.253-6.639c-3.2562-2.8532-3.5108-8.0805-2.8689-11.084"/>
      <path d="m-1402.2 652.39-5.3928-4.7214c-2.1278-2.0291-2.2941-5.7465-1.8747-7.8829"/>
      <path d="m-887.07 580.3c7.6221-27.37-45.309-51.196 18.254-39.316 14.673 2.7422 52.642-0.43895 24.035 16.342"/>
      <path d="m-1345.2 339.25c11.956-53.859 31.145-78.922 47.609-92.459"/>
      <path d="m-1316.9 300.82c13.957-36.469 44.699-57.31 51.663-52.408 9.6431 6.7881 0.1234 21.159 12.92 47.778"/>
      <path d="m-830.46 112.42 8.6374-2.634c2.5765-0.7857 7.3854-0.8475 11.28 0.48293"/>
      <path d="m-960.03 491.34c39.107 27.226 99.069 46.091 169.42 8.2372l117.66-63.303" color="#000000"/>
      <path d="m-1316.9 300.82c10.778-27.914 34.519-43.866 39.897-40.114 7.4469 5.1957-0.017 13.841 9.8646 34.216"/>
      <path d="m-1316.9 300.82c7.4934-19.074 23.999-29.974 27.738-27.41 5.1775 3.5503-0.6566 7.3497 6.2137 21.272"/>
      <path d="m-1320.8 309.71c3.8909-10.86 16.414-23.631 18.355-22.37 2.6884 1.7456-1.3099 2.3498 2.2575 9.1953"/>
      <path d="m-885.89 579.61c6.1143-12.316-22.568-33.202 20.181-25.498"/>
      <path d="m-889.06 600.12c8.909-28.66-8.5299-39.637 15.94-32.18"/>
      <path d="m-948.11 1031.4s-20.96 21.659-41.921 23.755c-11.144 10.798 40.238 20.492 59.388 20.262" color="#000000"/>
      <path d="m-969.94 1052.3c-4.969 3.6476 17.943 6.9223 26.481 6.8446" color="#000000"/>
      <path d="m-959.27 1044.3c-2.574 0.485 9.2943 0.9203 13.717 0.91" color="#000000"/>
      <path d="m-487.62 365.86c6.3054-6.262 6.9086-10.503 7.1082-16.916 2.0906 4.7713 5.8538 14.314 5.0175 25.591" color="#000000"/>
      <path d="m-950.64 498.23c26.426 17.686 66.945 29.941 114.49 5.351l79.504-41.123" color="#000000"/>
      <path d="m-938.29 504.18c13.079 7.6456 33.133 12.943 56.663 2.3132l39.349-17.777" color="#000000"/>
      <path d="m-945.2 500.31c6.3159 2.5578 16 4.3301 27.362 0.77386l19.002-5.9472" color="#000000"/>
      <path d="m-961.51 491.48c2.4256 1.8567 8.2739 2.9116 14.295 1.5954l10.764-2.353" color="#000000"/>
     </g>
    </g>
   </g>
   <g transform="matrix(.6739 -1.0076 1.0067 .67452 3845 10636)" color="#000000" fill="none" stroke="#00080e" stroke-linecap="round" stroke-linejoin="round" stroke-width="7.6743">
    <path d="m9042.8-3049.6c1.3027-6.8467-0.4854-15.384-4.4345-23.702 3.7466-3.834 6.421-9.1493 7.708-15.914 3.4075-17.909-3.7462-41.598-17.333-62.531 1.228-20.664-13.355-48.9-34.424-65.428-22.674-17.788-44.274-15.281-48.246 5.596-1.0545 5.5421-0.763 11.822 0.6621 18.39-5.025 3.886-8.5886 9.9371-10.139 18.086-2.5808 13.565 0.8951 30.44 8.6378 46.926-4.3003 2.8609-7.3509 7.6416-8.6148 14.284-3.9721 20.877 11.188 52.218 33.862 70.006 19.633 15.402 38.46 15.591 45.736 1.8111 12.932 7.4573 24.267 4.6651 26.586-7.5236z" color="#000000"/>
    <path d="m8960-3225.9-0.332 22.068" color="#000000"/>
    <path d="m8977-3226.8-0.6668 15.39" color="#000000"/>
    <path d="m8994.2-3217.3-0.066 38.844" color="#000000"/>
    <path d="m9009.6-3202.2 0.9322 42.849" color="#000000"/>
    <path d="m8973.2-3120v6.0097" color="#000000"/>
    <path d="m8989.8-3135.1v13.411" color="#000000"/>
    <path d="m9006.8-3131.9v18.915" color="#000000"/>
    <path d="m9022.4-3121.9v34.776" color="#000000"/>
    <path d="m9016.2-3055.3v14.479" color="#000000"/>
    <path d="m8957.7-3084.1v24.871" color="#000000"/>
    <path d="m8972.8-3057.2v12.585" color="#000000"/>
    <path d="m8988-3044.1v9.0942" color="#000000"/>
    <path d="m8951.5-3175.3v12.494" color="#000000"/>
    <path d="m8966.6-3159.3v4.9465" color="#000000"/>
   </g>
   <path d="m6663-521.67c-8.5378 10.746-8.3352 23.328 2.5299 34.041 4.8687 4.8008 11.401 8.7547 18.974 11.749 0.5257 7.6845 4.2148 15.351 11.373 22.41 11.916 11.75 31.236 19.628 53.051 22.946-0.018 6.2629 2.7496 12.581 8.5853 18.335 18.34 18.084 60.099 23.949 93.286 13.1 28.737-9.3942 41.602-28.251 32.632-44.877 16.222-8.0012 21.068-21.297 10.36-31.855-6.0148-5.9309-15.826-9.8891-26.861-11.52-1.0555-5.0298-3.5056-10.009-7.4181-14.77-0.3256 0.16986-0.6495 0.32112-0.9848 0.48656 8.9692 16.626-3.9207 35.481-32.657 44.876-33.188 10.849-74.946 4.9846-93.286-13.1-5.8358-5.7544-8.6049-12.047-8.587-18.31-21.814-3.3183-41.134-11.196-53.051-22.946-3.4459-3.3979-6.0752-6.9495-7.9477-10.565z" color="#000000" fill="none" stroke="#00080e" stroke-linecap="round" stroke-linejoin="round" stroke-width="9.3013"/>
   <path d="m6870.1-452.79 14.576 9.7666" color="#000000" fill="none" stroke="#00080e" stroke-linecap="round" stroke-linejoin="round" stroke-width="9.3013"/>
   <path d="m6801.8-413.33 25.038 16.776" color="#000000" fill="none" stroke="#00080e" stroke-linecap="round" stroke-linejoin="round" stroke-width="9.3013"/>
   <path d="m6839-410.29 12.669 8.4886" color="#000000" fill="none" stroke="#00080e" stroke-linecap="round" stroke-linejoin="round" stroke-width="9.3013"/>
   <path d="m6862.4-416.81 9.1551 6.1342" color="#000000" fill="none" stroke="#00080e" stroke-linecap="round" stroke-linejoin="round" stroke-width="9.3013"/>
   <g transform="matrix(.7959 -.87459 -.73218 -.45188 2461.5 4135.2)" fill="none" stroke="#000" stroke-linecap="round" stroke-linejoin="round" stroke-width="9.3013">
    <path d="m5034.9-685.66c-58.115 31.749-61.338 88.788-7.1869 127.4 54.151 38.612 145.17 44.176 203.28 12.426 10.867-5.937 19.813-12.755 26.825-20.175-48.473-5.1004-95.392-20.718-131.23-46.271-35.837-25.554-54.42-56.642-56.102-87.305-12.712 3.3554-24.724 7.987-35.591 13.924z" color="#000000"/>
    <path d="m5074.3-678.03c-13.37 2.3309-62.872 18.409-64.836 55.322" color="#000000"/>
    <path d="m5080-660.56c-19.412 3.7922-45.689 16.429-49.125 33.828" color="#000000"/>
    <path d="m5091.2-643.35c-13.297 2.7678-29.133 3.9997-38.252 16.962" color="#000000"/>
    <path d="m5235.4-569.01c-6.8503 5.5533-29.921 21.896-73.731 26.075" color="#000000"/>
    <path d="m5105.2-626.61c-12.569 1.7477-19.066 3.0994-23.57 6.0814" color="#000000"/>
    <path d="m5206.4-573.96c-3.8216 2.8854-13.036 11.192-36.3 12.885" color="#000000"/>
    <path d="m5185.3-582.09c0.3993 1.3831-6.9335 2.6006-13.134 3.0542" color="#000000"/>
   </g>
   <g transform="matrix(.48932 .87777 -1.0696 .33134 1635.6 -2337.4)" fill="none" stroke="#000" stroke-linecap="round" stroke-linejoin="round">
    <path transform="matrix(.23586 -.12334 -.24571 -.17573 1538.7 -2661.2)" d="m6310.1-2672.9-324.5 62.741-160.94 288.68-159.95-289.23-324.29-63.854 225.65-241.5-39.481-328.15 299.41 139.98 299.89-138.95-40.606 328.01z" color="#000000" stroke-width="33.093"/>
    <path d="m3505-2963.4 3.7649 9.0802" color="#000000" stroke-width="8.8646"/>
    <path d="m3523.8-2958.3 10.156 17.939" color="#000000" stroke-width="8.8646"/>
    <path d="m3549.1-2950.6 16.135 32.19" color="#000000" stroke-width="8.8646"/>
    <path d="m3575.6-2944.4 29.816 59.43" color="#000000" stroke-width="8.8646"/>
    <path d="m3663.5-2942.6 18.16-4.8041" color="#000000" stroke-width="8.8646"/>
    <path d="m3642.9-2918 39.643-11.227" color="#000000" stroke-width="8.8646"/>
    <path d="m3618.5-2892.1 65.112-18.314" color="#000000" stroke-width="8.8646"/>
    <path d="m3745-2843.3-26.022-14.327" color="#000000" stroke-width="8.8646"/>
    <path d="m3718.3-2839.9-47.837-26.951" color="#000000" stroke-width="8.8646"/>
    <path d="m3689.7-2836.8-55.81-30.716" color="#000000" stroke-width="8.8646"/>
    <path d="m3632-2798.3-6.8075 12.199" color="#000000" stroke-width="8.8646"/>
    <path d="m3625.4-2821.4-11.975 20.656" color="#000000" stroke-width="8.8646"/>
    <path d="m3618.9-2845.6-20.588 35.69" color="#000000" stroke-width="8.8646"/>
    <path d="m3611.4-2867.6-26.539 45.086" color="#000000" stroke-width="8.8646"/>
    <path d="m3582.2-2851.8-10.253 17.837" color="#000000" stroke-width="8.8646"/>
    <path d="m3506.1-2862.2-31.227-4.1397" color="#000000" stroke-width="8.8646"/>
    <path d="m3563.9-2873.3-69.098-8.7905" color="#000000" stroke-width="8.8646"/>
    <path d="m3552.2-2894.8-38.314-3.9182" color="#000000" stroke-width="8.8646"/>
   </g>
  </g>
 </g>
</svg>
