<?xml version="1.0" encoding="utf-8"?>
<!-- Generator: Adobe Illustrator 18.1.1, SVG Export Plug-In . SVG Version: 6.00 Build 0)  -->
<svg version="1.1" id="Layer_1" xmlns="http://www.w3.org/2000/svg" xmlns:xlink="http://www.w3.org/1999/xlink" x="0px" y="0px"
	 viewBox="0 0 24 24" enable-background="new 0 0 24 24" xml:space="preserve">
<path fill="#4588A9" d="M20,13.4v-2.9l-1.8-0.3c-0.1-0.4-0.3-0.8-0.6-1.4l1.1-1.5l-2.1-2.1l-1.5,1.1c-0.5-0.3-1-0.5-1.4-0.6
	l-0.2-1.8h-2.9l-0.3,1.8C9.8,5.8,9.4,6,8.9,6.3L7.4,5.2L5.3,7.3l1,1.5C6,9.3,5.9,9.7,5.7,10.2L4,10.4v2.9l1.8,0.3
	c0.1,0.5,0.3,0.9,0.6,1.4l-1,1.5l2.1,2.1l1.5-1c0.4,0.2,0.9,0.4,1.4,0.6l0.3,1.8h3l0.3-1.8c0.5-0.1,0.9-0.3,1.4-0.6l1.5,1.1l2.1-2.1
	l-1.1-1.5c0.3-0.5,0.5-1,0.6-1.4L20,13.4z M12,14.9c-1.7,0-3-1.3-3-3s1.3-3,3-3s3,1.3,3,3S13.7,14.9,12,14.9z"/>
</svg>
