<?xml version="1.0" encoding="utf-8"?>
<svg viewBox="0 0 32 32" fill="#FFFFFF" stroke="#FFFFFF" xmlns="http://www.w3.org/2000/svg">
  <path d="M15.116 24.885c0.012 0.012 0.029 0.016 0.041 0.027 0.103 0.099 0.223 0.18 0.356 0.239l0.008 0.003 0.001 0c0.141 0.060 0.306 0.095 0.478 0.095 0.345 0 0.657-0.139 0.883-0.365l5.001-5c0.226-0.226 0.366-0.539 0.366-0.884 0-0.691-0.56-1.251-1.251-1.251-0.345 0-0.658 0.14-0.884 0.366l-2.865 2.867v-18.982c0-0.69-0.56-1.25-1.25-1.25s-1.25 0.56-1.25 1.25v0 18.981l-2.866-2.866c-0.226-0.226-0.539-0.366-0.884-0.366-0.691 0-1.251 0.56-1.251 1.251 0 0.346 0.14 0.658 0.367 0.885v0zM30 28.75h-28c-0.69 0-1.25 0.56-1.25 1.25s0.56 1.25 1.25 1.25v0h28c0.69 0 1.25-0.56 1.25-1.25s-0.56-1.25-1.25-1.25v0z"></path>
</svg>